<?xml version="1.0" encoding="utf-8"?>
<!-- Svg Vector Icons : http://www.onlinewebfonts.com/icon -->
<!DOCTYPE svg PUBLIC "-//W3C//DTD SVG 1.1//EN" "http://www.w3.org/Graphics/SVG/1.1/DTD/svg11.dtd">
<svg version="1.1" xmlns="http://www.w3.org/2000/svg" xmlns:xlink="http://www.w3.org/1999/xlink" x="0px" y="0px" viewBox="0 0 1000 1000" enable-background="new 0 0 1000 1000" xml:space="preserve">
<metadata> Svg Vector Icons : http://www.onlinewebfonts.com/icon </metadata>
<g><g transform="translate(0.000000,511.000000) scale(0.100000,-0.100000)"><path d="M3009.9,4987.8c-223.9-52.2-447.8-241.3-552.1-465.2l-60.9-130.4V109.9v-4282.3l58.7-123.9c80.4-171.7,152.2-260.8,284.8-352.2c223.9-150,137-145.6,2310.7-139.1l1954.2,6.5l123.9,58.7c171.7,80.4,308.7,213,393.4,384.8l69.6,143.5l6.5,4275.8l4.4,4275.8l-45.6,119.6c-89.1,241.3-291.3,428.2-539.1,500c-104.3,30.4-343.4,34.8-2021.6,32.6C3949,5007.3,3055.6,4998.7,3009.9,4987.8z M5603.2,4316.1c26.1-26.1,43.5-71.7,43.5-119.6c0-47.8-17.4-93.5-43.5-119.6c-41.3-41.3-71.7-43.5-606.5-43.5h-565.2l-43.5,56.5c-26.1,32.6-45.6,80.4-45.6,106.5c0,26.1,19.6,73.9,45.6,106.5l43.5,56.5h565.2C5531.5,4359.6,5561.9,4357.4,5603.2,4316.1z M7298.7,109.9v-3271.5H5005.4H2712.1V109.9v3271.5h2293.3h2293.3V109.9z M5155.4-3513.7c117.4-34.8,278.2-195.6,313-313c69.6-239.1-21.7-467.4-236.9-582.6c-367.4-202.1-802.1,119.6-713,530.4c32.6,147.8,123.9,265.2,260.8,334.8C4905.4-3481.1,5016.3-3472.4,5155.4-3513.7z"/><path d="M3407.7,1272.8c0-419.5,2.2-434.8,43.5-436.9c23.9-2.2,165.2-2.2,315.2-2.2c150,0,326.1,0,391.3,2.2l119.6,2.2v434.8v434.7h-434.8h-434.7V1272.8z M4168.5,1272.8V946.8h-326.1h-326.1v326.1v326.1h326.1h326.1V1272.8z"/><path d="M3662.1,1455.4c-8.7-8.7-15.2-97.8-15.2-197.8v-180.4h195.6h197.8l-6.5,191.3l-6.5,189.1l-173.9,6.5C3755.5,1466.3,3670.8,1464.1,3662.1,1455.4z"/><path d="M4555.5,1648.9c-4.3-47.8-19.6-63-65.2-67.4l-60.9-6.5v-184.8c0-180.4,0-182.6,54.3-182.6c52.2,0,54.3,6.5,54.3,130.4v130.4h130.4h130.4v65.2c0,58.7,6.5,65.2,65.2,65.2c54.3,0,65.2,8.7,65.2,54.3c0,54.3-2.2,54.3-182.6,54.3H4562L4555.5,1648.9z"/><path d="M5059.8,1653.3c0-52.2,6.5-54.3,130.4-54.3h130.4v-65.2c0-54.3,8.7-65.2,54.3-65.2c52.2,0,54.3,6.5,54.3,119.6v119.6h-184.8C5061.9,1707.6,5059.8,1707.6,5059.8,1653.3z"/><path d="M5711.9,1268.5V827.2h434.7h434.8v441.3v439.1h-434.8h-434.7V1268.5z M6472.7,1272.8V946.8h-326.1h-326.1v326.1v326.1h326.1h326.1V1272.8z"/><path d="M5966.2,1455.4c-8.7-8.7-15.2-97.8-15.2-197.8v-180.4h195.6h197.8l-6.5,191.3l-6.5,189.1l-173.9,6.5C6059.7,1466.3,5974.9,1464.1,5966.2,1455.4z"/><path d="M4929.4,1525c0-41.3-13-54.3-58.7-60.9c-47.8-4.3-63-19.6-67.4-65.2c-6.5-47.8-19.6-60.9-60.9-60.9c-43.5,0-52.2-10.9-52.2-65.2s8.7-65.2,54.3-65.2c45.6,0,54.3-10.9,54.3-65.2s-8.7-65.2-54.3-65.2c-54.3,0-54.3-2.2-54.3-184.8c0-182.6,0-184.8,54.3-184.8c45.6,0,54.3-10.9,54.3-65.2c0-58.7,6.5-65.2,65.2-65.2c65.2,0,65.2,2.2,65.2,119.6s0,119.6-65.2,119.6c-58.7,0-65.2,6.5-65.2,65.2c0,58.7,6.5,65.2,65.2,65.2c54.3,0,65.2-8.7,65.2-54.3c0-45.6,10.9-54.3,65.2-54.3s65.2,8.7,65.2,54.3c0,45.7,10.9,54.3,65.2,54.3s65.2-8.7,65.2-52.2c0-34.8,15.2-58.7,43.5-67.4c69.6-21.7,87,6.5,87,132.6c0,110.9,2.2,117.4,54.3,117.4c45.6,0,54.3,10.9,54.3,65.2c0,58.7,6.5,65.2,65.2,65.2h65.2v130.4c0,123.9-2.2,130.4-54.3,130.4c-45.6,0-54.3-10.9-54.3-65.2c0-58.7-6.5-65.2-63-65.2c-54.3,0-65.2,8.7-71.7,60.9c-4.3,45.7-19.5,60.9-65.2,65.2c-60.9,6.5-60.9,6.5-60.9-123.9v-132.6H5125h-65.2v184.8v184.8h-65.2C4940.2,1577.2,4929.4,1568.5,4929.4,1525z M4929.4,1272.8c0-58.7,6.5-65.2,65.2-65.2h65.2v-130.4V946.8h-65.2h-65.2v130.4v130.4h-65.2c-58.7,0-65.2,6.5-65.2,65.2s6.5,65.2,65.2,65.2S4929.4,1331.5,4929.4,1272.8z"/><path d="M4559.8,1142.4c0-54.3,8.7-65.2,54.3-65.2s54.3,10.9,54.3,65.2s-8.7,65.2-54.3,65.2S4559.8,1196.8,4559.8,1142.4z"/><path d="M5451.1,892.4c0-182.6,0-184.8,54.3-184.8c54.3,0,54.3,2.2,54.3,184.8c0,182.6,0,184.8-54.3,184.8C5451.1,1077.2,5451.1,1075,5451.1,892.4z"/><path d="M4425,757.7c-6.5-191.3-6.5-191.3-65.2-197.8c-47.8-6.5-60.9-19.6-60.9-60.9c0-47.8,6.5-52.2,119.6-52.2h119.6v250v250h-54.3C4431.6,946.8,4431.6,942.4,4425,757.7z"/><path d="M5059.8,762c0-45.7,10.9-54.3,65.2-54.3s65.2,8.7,65.2,54.3c0,45.6-10.9,54.3-65.2,54.3S5059.8,807.7,5059.8,762z"/><path d="M3407.7,631.6c0-43.5,10.9-54.3,54.3-54.3c43.5,0,54.3,10.9,54.3,54.3s-10.9,54.3-54.3,54.3C3418.6,685.9,3407.7,675.1,3407.7,631.6z"/><path d="M4168.5,631.6c0-43.5,10.9-54.3,52.2-54.3c37,0,54.3,15.2,60.9,54.3c10.9,47.8,4.3,54.3-50,54.3C4179.4,685.9,4168.5,677.2,4168.5,631.6z"/><path d="M5190.2,566.4c0-117.4,0-119.6,65.2-119.6c58.7,0,65.2-6.5,65.2-65.2s6.5-65.2,65.2-65.2h65.2V186c0-130.4,0-130.4-65.2-130.4c-60.9,0-63,2.2-69.6,126.1c-6.5,117.4-8.7,123.9-65.2,130.4c-54.3,6.5-60.9,0-60.9-58.7c0-60.9-6.5-67.4-65.2-67.4s-65.2-6.5-65.2-65.2c0-58.7-6.5-65.2-65.2-65.2h-65.2v184.8v184.8h-65.2c-54.3,0-65.2-8.7-65.2-54.3c0-45.6-10.9-54.3-65.2-54.3s-65.2,8.7-65.2,54.3c0,43.5-10.9,54.3-54.3,54.3c-52.2,0-54.3-6.5-54.3-117.4c0-113,2.2-119.6,60.9-126.1c45.7-4.3,60.9-19.6,65.2-65.2c6.5-54.4,0-60.9-58.7-60.9c-60.9,0-67.4-6.5-67.4-65.2c0-58.7,6.5-65.2,67.4-65.2c58.7,0,65.2-6.5,58.7-58.7c-4.3-50-17.4-63-76.1-67.4c-67.4-6.5-71.7-2.2-71.7,58.7c0,56.5-8.7,67.4-54.3,67.4c-52.2,0-54.3-6.5-54.3-117.4c0-113,2.2-119.6,60.9-126.1c45.7-4.3,60.9-19.6,65.2-65.2c6.5-58.7,13-60.9,126.1-60.9h117.4v250v250h65.2c58.7,0,65.2-6.5,65.2-65.2c0-58.7,6.5-65.2,65.2-65.2s65.2-6.5,65.2-65.2c0-58.7-6.5-65.2-65.2-65.2c-65.2,0-65.2-2.2-65.2-119.6c0-117.4,0-119.6,65.2-119.6c58.7,0,65.2,6.5,65.2,67.4c0,58.7,6.5,65.2,60.9,58.7c45.7-4.3,60.9-19.6,65.2-65.2c6.5-52.2,17.4-60.9,71.7-60.9c56.5,0,63.1,6.5,63.1,67.4c0,60.9,6.5,67.4,54.3,58.7c52.2-10.9,54.3-8.7,54.3,115.2c0,128.2,0,128.2,65.2,128.2h65.2V55.5V186h65.2c58.7,0,65.2,6.5,65.2,65.2c0,58.7-6.5,65.2-65.2,65.2c-54.3,0-65.2,8.7-65.2,52.2c0,41.3-13,54.3-58.7,60.9c-58.7,6.5-60.9,13-67.4,132.6l-6.5,123.9h-117.4h-119.6V566.4z"/><path d="M5581.5,631.6c0-52.2,6.5-54.3,119.6-54.3c113,0,119.6,2.2,119.6,54.3s-6.5,54.3-119.6,54.3C5588,685.9,5581.5,683.8,5581.5,631.6z"/><path d="M6081.4,620.7c0-65.2-2.2-65.2-117.4-65.2c-113,0-119.6-2.2-126.1-58.7c-4.4-47.8-19.6-63-65.2-67.4c-47.8-6.5-60.9-19.6-60.9-60.9c0-47.8,6.5-52.2,119.6-52.2c117.4,0,119.6,0,119.6,65.2c0,58.7,6.5,65.2,65.2,65.2s65.2-6.5,65.2-63c0-54.3-8.7-65.2-58.7-71.7c-47.8-4.3-63-19.6-67.4-65.2c-6.5-58.7-13.1-60.9-126.1-60.9c-115.2,0-117.4,0-117.4-65.2c0-58.7,6.5-65.2,65.2-65.2c58.7,0,65.2-6.5,65.2-65.2c0-54.3,8.7-65.2,54.3-65.2c52.2,0,54.3,6.5,54.3,130.4V186h130.4h130.4v130.4v130.4h65.2c58.7,0,65.2-6.5,65.2-65.2s6.5-65.2,65.2-65.2h65.2V186V55.5h-65.2h-65.2V-74.9v-130.4h-65.2c-58.7,0-65.2,6.5-65.2,65.2c0,58.7-6.5,65.2-65.2,65.2c-58.7,0-65.2-6.5-65.2-65.2c0-58.7-6.5-65.2-65.2-65.2s-65.2-6.5-65.2-65.2v-65.2h-130.4h-130.4v130.4c0,123.9-2.2,130.4-54.3,130.4s-54.3-6.5-54.3-130.4v-130.4h-65.2h-65.2v-250v-250h-65.2c-65.2,0-65.2,2.2-65.2,119.6v119.6H5125c-193.5,0-195.6,0-195.6-54.3c0-52.2,6.5-54.3,130.4-54.3h130.4v-65.2c0-58.7,6.5-65.2,65.2-65.2h65.2v-130.4v-130.4h-65.2c-58.7,0-65.2,6.5-65.2,65.2v65.2h-130.4h-130.4v117.4c0,113-2.2,119.6-58.7,126.1c-47.8,4.4-63,19.6-67.4,67.4c-6.5,45.7-19.6,58.7-58.7,58.7c-39.1,0-52.2-13-58.7-58.7c-4.3-47.8-19.6-63-65.2-67.4l-60.9-6.5v-250V-1227h54.3c45.6,0,54.3,10.9,54.3,65.2c0,58.7,6.5,65.2,65.2,65.2s65.2,6.5,65.2,65.2c0,58.7,6.5,65.2,65.2,65.2s65.2-6.5,65.2-65.2c0-58.7,6.5-65.2,65.2-65.2s65.2-6.5,65.2-65.2s-6.5-65.2-65.2-65.2s-65.2-6.5-65.2-65.2c0-58.7-6.5-65.2-65.2-65.2s-65.2,6.5-65.2,65.2c0,54.3-8.7,65.2-54.3,65.2c-52.2,0-54.3-6.5-54.3-123.9v-126.1l243.5,4.3l245.6,2.2l6.5,121.7c6.5,119.6,8.7,121.7,69.6,121.7c58.7,0,65.2-6.5,65.2-65.2c0-58.7,6.5-65.2,65.2-65.2c54.3,0,65.2-8.7,65.2-54.3c0-52.2,6.5-54.3,119.6-54.3h119.6v119.6v117.4l-123.9,6.5l-126.1,6.5l-6.5,126.1l-6.5,123.9h78.3c69.6,0,76.1-4.4,76.1-65.2v-65.2h130.4h130.4V-1227v-130.4h119.6c113,0,119.6-2.2,119.6-54.3c0-45.6,10.9-54.3,65.2-54.3s65.2,8.7,65.2,54.3c0,45.7-10.9,54.3-65.2,54.3c-58.7,0-65.2,6.5-65.2,65.2c0,58.7-6.5,65.2-65.2,65.2H5951v130.4v130.4h65.2c58.7,0,65.2-6.5,65.2-65.2c0-58.7,6.5-65.2,65.2-65.2c58.7,0,65.2-6.5,65.2-65.2s6.5-65.2,65.2-65.2c58.7,0,65.2,6.5,65.2,65.2s6.5,65.2,65.2,65.2h65.2V-1290v-191.3l54.3,10.9l54.3,8.7v432.6v432.6h-54.3c-54.3,0-54.3-2.2-54.3-184.8v-184.8h-63c-54.3,0-65.2,8.7-71.7,60.9c-6.5,56.5-13,58.7-130.4,65.2c-123.9,6.5-126.1,8.7-126.1,69.6c0,58.7,6.5,65.2,65.2,65.2c54.3,0,65.2,8.7,65.2,54.3c0,45.7-10.9,54.3-65.2,54.3h-65.2v195.6v195.6h65.2h65.2v-184.8v-184.8h65.2h65.2v184.8v184.8h65.2c54.3,0,65.2-8.7,65.2-54.3c0-43.5,10.9-54.3,54.3-54.3c52.2,0,54.3,6.5,54.3,119.6c0,113-2.2,119.6-54.3,119.6c-45.6,0-54.3,10.9-54.3,65.2c0,54.3,8.7,65.2,54.3,65.2c54.3,0,54.3,2.2,54.3,184.8c0,182.6,0,184.8-54.3,184.8c-52.2,0-54.3,6.5-54.3,130.4v130.4h-195.6h-195.6V620.7z M5951-640v-195.6h-195.6h-195.6v180.4c0,100,6.5,189.1,15.2,195.6c6.5,8.7,95.6,15.2,195.6,15.2H5951V-640z M4798.9-900.9c0-58.7-6.5-65.2-65.2-65.2s-65.2,6.5-65.2,65.2c0,58.7,6.5,65.2,65.2,65.2S4798.9-842.2,4798.9-900.9z M6342.3-1031.3c0-58.7-6.5-65.2-65.2-65.2c-58.7,0-65.2,6.5-65.2,65.2c0,58.7,6.5,65.2,65.2,65.2C6335.8-966.1,6342.3-972.6,6342.3-1031.3z"/><path d="M5711.9-650.9c0-43.5,10.9-54.3,54.3-54.3s54.3,10.9,54.3,54.3s-10.9,54.3-54.3,54.3S5711.9-607.4,5711.9-650.9z"/><path d="M3538.2,501.2c0-43.5,10.9-54.3,54.3-54.3c45.7,0,54.3-10.9,54.3-65.2s-8.7-65.2-54.3-65.2c-45.6,0-54.3-10.9-54.3-65.2c0-54.3,8.7-65.2,54.3-65.2c45.7,0,54.3,10.9,54.3,65.2c0,58.7,6.5,65.2,65.2,65.2s65.2-6.5,65.2-65.2c0-58.7,6.5-65.2,65.2-65.2c58.7,0,65.2,6.5,65.2,65.2c0,58.7,6.5,65.2,65.2,65.2c58.7,0,65.2-6.5,65.2-65.2c0-58.7,6.5-65.2,65.2-65.2c58.7,0,65.2-6.5,65.2-65.2c0-65.2,2.2-65.2,119.6-65.2h119.6V186c0,123.9-2.2,130.4-54.3,130.4c-45.7,0-54.3-10.9-54.3-65.2c0-58.7-6.5-65.2-65.2-65.2s-65.2,6.5-65.2,65.2c0,54.3,8.7,65.2,54.3,65.2c43.5,0,54.3,10.9,54.3,54.3c0,54.3-2.2,54.3-184.8,54.3h-184.8v65.2v65.2h-184.8C3540.3,555.5,3538.2,555.5,3538.2,501.2z"/><path d="M4690.2,501.2c0-43.5,10.9-54.3,54.3-54.3s54.3,10.9,54.3,54.3s-10.9,54.3-54.3,54.3S4690.2,544.6,4690.2,501.2z"/><path d="M4929.4,501.2c0-45.7,10.9-54.3,65.2-54.3s65.2,8.7,65.2,54.3c0,45.6-10.9,54.3-65.2,54.3S4929.4,546.8,4929.4,501.2z"/><path d="M3777.3-74.9v-130.4h130.4h130.4v130.4V55.5h-130.4h-130.4V-74.9z"/><path d="M3538.2-259.6c0-182.6,0-184.8,54.3-184.8c54.3,0,54.3,2.2,54.3,184.8c0,182.6,0,184.8-54.3,184.8C3538.2-74.9,3538.2-77,3538.2-259.6z"/><path d="M4168.5-140.1c0-54.3,8.7-65.2,52.2-65.2c65.2,0,80.4,19.6,63,82.6c-6.5,32.6-28.3,47.8-63,47.8C4177.2-74.9,4168.5-85.7,4168.5-140.1z"/><path d="M3907.7-390.1c0-45.6,10.9-54.3,65.2-54.3c54.3,0,65.2,8.7,65.2,54.3c0,45.7-10.9,54.3-65.2,54.3C3918.6-335.7,3907.7-344.4,3907.7-390.1z"/><path d="M4168.5-390.1c0-52.2,6.5-54.3,119.6-54.3c113,0,119.6,2.2,119.6,54.3c0,52.2-6.5,54.3-119.6,54.3C4175.1-335.7,4168.5-337.9,4168.5-390.1z"/><path d="M4429.4-520.5c0-43.5,10.9-54.4,54.3-54.4c43.5,0,54.3,10.9,54.3,54.4c0,43.5-10.9,54.3-54.3,54.3C4440.3-466.2,4429.4-477,4429.4-520.5z"/><path d="M3407.7-1035.7v-441.3h434.7h434.8v441.3v439.1h-434.8h-434.7V-1035.7z M4168.5-1031.3v-326.1h-326.1h-326.1v326.1v326.1h326.1h326.1V-1031.3z"/><path d="M3662.1-848.7c-8.7-8.7-15.2-97.8-15.2-197.8V-1227h195.6h197.8l-6.5,191.3l-6.5,189.1l-173.9,6.5C3755.5-837.9,3670.8-840,3662.1-848.7z"/><path d="M4429.4-1411.7c0-43.5,10.9-54.3,54.3-54.3c43.5,0,54.3,10.9,54.3,54.3s-10.9,54.3-54.3,54.3C4440.3-1357.4,4429.4-1368.3,4429.4-1411.7z"/></g></g>
</svg>